<svg width="208" height="208" viewBox="0 0 208 208" fill="none" xmlns="http://www.w3.org/2000/svg">
<path d="M138.125 112.125C136.331 112.125 134.875 113.581 134.875 115.375V126.75C134.875 134.813 128.315 141.375 120.25 141.375C112.185 141.375 105.625 134.813 105.625 126.75V115.375C105.625 113.581 104.169 112.125 102.375 112.125C100.581 112.125 99.125 113.581 99.125 115.375V126.75C99.125 138.398 108.602 147.875 120.25 147.875C131.898 147.875 141.375 138.398 141.375 126.75V115.375C141.375 113.581 139.919 112.125 138.125 112.125Z" fill="#BA4B40"/>
<path d="M204.75 43.875C204.75 21.4744 186.526 3.25 164.125 3.25C149.648 3.25 136.923 10.868 129.727 22.2999C124.092 10.8144 112.371 3.25 99.1254 3.25C95.7357 3.25 92.4678 3.7635 89.3754 4.6865C86.2831 3.7635 83.0152 3.25 79.6254 3.25C60.8095 3.25 45.5004 18.5575 45.5004 37.375V43.875H19.5004C17.8202 43.875 16.4162 45.1571 16.2634 46.8309L3.90692 182.743C3.66155 185.465 4.5748 188.183 6.41917 190.2C8.26192 192.218 10.8847 193.375 13.6179 193.375H65.7739L65.7073 194.061C65.4424 196.792 66.3492 199.522 68.1919 201.554C70.0347 203.585 72.6672 204.75 75.4102 204.75H182.966C185.709 204.75 188.341 203.585 190.184 201.554C192.027 199.522 192.933 196.791 192.669 194.061L183.609 100.436C183.45 98.7708 182.049 97.5 180.375 97.5H165.469L164.288 84.4951C186.614 84.4074 204.75 66.222 204.75 43.875ZM144.344 97.5L142.599 78.3055C147.12 81.1427 152.234 83.1171 157.712 83.9898L158.942 97.5H147.875H144.344ZM164.125 9.75C182.941 9.75 198.25 25.0575 198.25 43.875C198.25 62.6925 182.941 78 164.125 78C145.31 78 130 62.6925 130 43.875C130 25.0575 145.31 9.75 164.125 9.75ZM125.831 30.3306C124.328 34.5703 123.5 39.1268 123.5 43.875H113.75V37.375C113.75 26.0244 108.157 15.977 99.6064 9.77112C112.005 9.984 122.683 18.3511 125.831 30.3306ZM89.3754 11.5602C99.803 15.5139 107.25 25.5775 107.25 37.375V43.875H71.5004V37.375C71.5004 25.5775 78.9478 15.5139 89.3754 11.5602ZM52.0004 37.375C52.0004 22.3064 64.1327 10.0376 79.1395 9.77437C70.5904 15.9819 65.0004 26.026 65.0004 37.375V43.875H52.0004V37.375ZM13.6179 186.875C12.6949 186.875 11.8418 186.5 11.2178 185.817C10.5938 185.135 10.298 184.252 10.3809 183.331L22.4677 50.375H45.5004V58.5C45.5004 60.294 46.9564 61.75 48.7504 61.75C50.5444 61.75 52.0004 60.294 52.0004 58.5V50.375H65.0004V58.5C65.0004 60.294 66.4564 61.75 68.2504 61.75C70.0444 61.75 71.5004 60.294 71.5004 58.5V50.375H107.25V58.5C107.25 60.294 108.706 61.75 110.5 61.75C112.294 61.75 113.75 60.294 113.75 58.5V50.375H124.027C125.428 59.0493 129.583 66.8119 135.564 72.7334L137.817 97.5H78.0004C76.3267 97.5 74.9259 98.7708 74.7667 100.436L66.4012 186.875H13.6179ZM149.328 198.25H75.4102C74.4823 198.25 73.6259 197.871 73.0035 197.186C72.3795 196.498 72.0871 195.611 72.1748 194.688L80.9498 104H147.875H159.551L168.326 194.688C168.415 195.611 168.121 196.498 167.497 197.186C166.873 197.871 166.019 198.25 165.091 198.25H149.328ZM186.201 194.688C186.29 195.611 185.996 196.498 185.372 197.186C184.748 197.871 183.894 198.25 182.966 198.25H174.272C174.743 196.919 174.933 195.491 174.794 194.061L166.079 104H177.424L186.201 194.688Z" fill="#BA4B40"/>
<path d="M156.952 57.5475C157.561 58.1585 158.388 58.4998 159.25 58.4998C159.271 58.4998 159.289 58.4998 159.31 58.4998C160.192 58.4835 161.031 58.1081 161.632 57.4614L182.757 34.7114C183.977 33.3951 183.901 31.3395 182.588 30.1175C181.27 28.8988 179.218 28.9719 177.994 30.2881L159.162 50.5665L150.172 41.577C148.903 40.3079 146.846 40.3079 145.577 41.577C144.308 42.8461 144.308 44.9034 145.577 46.1725L156.952 57.5475Z" fill="#BA4B40"/>
</svg>
