<svg width="24" height="24" viewBox="0 0 24 24" fill="none" xmlns="http://www.w3.org/2000/svg">
<path d="M12 22C17.5228 22 22 17.5228 22 12C22 6.47715 17.5228 2 12 2C6.47715 2 2 6.47715 2 12C2 17.5228 6.47715 22 12 22Z" fill="#3A559F"/>
<path d="M15.168 10.8159L14.9669 12.558C14.9585 12.6374 14.9213 12.7111 14.8622 12.7649C14.8031 12.8188 14.7263 12.849 14.6464 12.85H12.8282L12.8192 18.0148C12.8198 18.076 12.7963 18.135 12.7537 18.179C12.7112 18.223 12.6531 18.2485 12.5919 18.25H10.7498C10.7192 18.25 10.6889 18.2439 10.6607 18.2319C10.6325 18.2199 10.6071 18.2023 10.5858 18.1803C10.5646 18.1582 10.5481 18.132 10.5372 18.1034C10.5263 18.0748 10.5213 18.0442 10.5226 18.0136V12.85H9.15892C9.11609 12.8496 9.07377 12.8407 9.03437 12.8239C8.99497 12.8071 8.95927 12.7827 8.9293 12.7521C8.89933 12.7215 8.87569 12.6853 8.85971 12.6455C8.84374 12.6058 8.83575 12.5633 8.8362 12.5205L8.82938 10.7784C8.82878 10.7354 8.83665 10.6928 8.85254 10.6528C8.86844 10.6129 8.89204 10.5765 8.92201 10.5457C8.95198 10.5148 8.98772 10.4902 9.0272 10.4732C9.06668 10.4562 9.10913 10.4472 9.15211 10.4466H10.5226V8.76477C10.5226 6.8125 11.6817 5.75 13.3817 5.75H14.7748C14.8179 5.75044 14.8605 5.75939 14.9001 5.77632C14.9397 5.79325 14.9756 5.81783 15.0057 5.84866C15.0358 5.87949 15.0595 5.91596 15.0754 5.95597C15.0914 5.99598 15.0993 6.03874 15.0987 6.08182V7.54773C15.0993 7.5908 15.0914 7.63357 15.0754 7.67358C15.0595 7.71359 15.0358 7.75005 15.0057 7.78088C14.9756 7.81171 14.9397 7.8363 14.9001 7.85323C14.8605 7.87016 14.8179 7.8791 14.7748 7.87955H13.9203C12.9964 7.87955 12.8169 8.33409 12.8169 8.99091V10.4466H14.8476C14.8937 10.4472 14.9393 10.4575 14.9812 10.477C15.0231 10.4964 15.0604 10.5245 15.0906 10.5594C15.1209 10.5942 15.1435 10.6351 15.1568 10.6793C15.1701 10.7236 15.174 10.7701 15.168 10.8159Z" fill="white"/>
</svg>
