<svg width="24" height="24" viewBox="0 0 24 24" fill="none" xmlns="http://www.w3.org/2000/svg">
<path d="M12 22C17.5228 22 22 17.5228 22 12C22 6.47715 17.5228 2 12 2C6.47715 2 2 6.47715 2 12C2 17.5228 6.47715 22 12 22Z" fill="url(#paint0_linear_508_5259)"/>
<path d="M14.1243 6.44434H9.87984C7.98651 6.44434 6.44873 7.98211 6.44873 9.87545V14.1199C6.44873 16.0132 7.98651 17.551 9.87984 17.551H14.1243C16.0176 17.551 17.5554 16.0132 17.5554 14.1199V9.87545C17.5554 7.98211 16.0176 6.44434 14.1243 6.44434ZM16.3154 14.1243C16.3154 15.3332 15.3332 16.3199 14.1198 16.3199H9.8754C8.66651 16.3199 7.67984 15.3377 7.67984 14.1243V9.87989C7.67984 8.671 8.66206 7.68434 9.8754 7.68434H14.1198C15.3287 7.68434 16.3154 8.66656 16.3154 9.87989V14.1243Z" fill="white"/>
<path d="M11.9999 9.16016C10.4355 9.16016 9.15991 10.4357 9.15991 12.0002C9.15991 13.5646 10.4355 14.8402 11.9999 14.8402C13.5644 14.8402 14.8399 13.5646 14.8399 12.0002C14.8399 10.4357 13.5644 9.16016 11.9999 9.16016ZM11.9999 13.7246C11.0488 13.7246 10.2755 12.9513 10.2755 12.0002C10.2755 11.049 11.0488 10.2757 11.9999 10.2757C12.951 10.2757 13.7244 11.049 13.7244 12.0002C13.7244 12.9513 12.951 13.7246 11.9999 13.7246Z" fill="white"/>
<path d="M15.0565 9.47095C15.3182 9.42833 15.4958 9.18168 15.4531 8.92003C15.4105 8.65838 15.1639 8.48082 14.9022 8.52343C14.6406 8.56604 14.463 8.81269 14.5056 9.07434C14.5482 9.33599 14.7949 9.51356 15.0565 9.47095Z" fill="white"/>
<defs>
<linearGradient id="paint0_linear_508_5259" x1="4.38573" y1="19.6143" x2="18.5968" y2="5.40316" gradientUnits="userSpaceOnUse">
<stop stop-color="#FEE411"/>
<stop offset="0.052" stop-color="#FEDB16"/>
<stop offset="0.138" stop-color="#FEC125"/>
<stop offset="0.248" stop-color="#FE983D"/>
<stop offset="0.376" stop-color="#FE5F5E"/>
<stop offset="0.5" stop-color="#FE2181"/>
<stop offset="1" stop-color="#9000DC"/>
</linearGradient>
</defs>
</svg>
