<svg width="288" height="288" viewBox="0 0 288 288" fill="none" xmlns="http://www.w3.org/2000/svg">
<path d="M178.125 152.125C176.331 152.125 174.875 153.581 174.875 155.375V166.75C174.875 174.813 168.315 181.375 160.25 181.375C152.185 181.375 145.625 174.813 145.625 166.75V155.375C145.625 153.581 144.169 152.125 142.375 152.125C140.581 152.125 139.125 153.581 139.125 155.375V166.75C139.125 178.398 148.602 187.875 160.25 187.875C171.898 187.875 181.375 178.398 181.375 166.75V155.375C181.375 153.581 179.919 152.125 178.125 152.125Z" fill="#BA4B40"/>
<path d="M244.751 83.875C244.751 61.4744 226.527 43.25 204.126 43.25C189.649 43.25 176.923 50.868 169.728 62.2999C164.092 50.8144 152.371 43.25 139.126 43.25C135.736 43.25 132.468 43.7635 129.376 44.6865C126.284 43.7635 123.016 43.25 119.626 43.25C100.81 43.25 85.5009 58.5575 85.5009 77.375V83.875H59.5009C57.8207 83.875 56.4167 85.1571 56.2639 86.8309L43.9074 222.743C43.662 225.465 44.5753 228.183 46.4197 230.2C48.2624 232.218 50.8852 233.375 53.6184 233.375H105.774L105.708 234.061C105.443 236.792 106.35 239.522 108.192 241.554C110.035 243.585 112.668 244.75 115.411 244.75H222.966C225.709 244.75 228.342 243.585 230.184 241.554C232.027 239.522 232.934 236.791 232.669 234.061L223.61 140.436C223.45 138.771 222.05 137.5 220.376 137.5H205.47L204.288 124.495C226.614 124.407 244.751 106.222 244.751 83.875ZM184.345 137.5L182.6 118.305C187.12 121.143 192.234 123.117 197.712 123.99L198.942 137.5H187.876H184.345ZM204.126 49.75C222.942 49.75 238.251 65.0575 238.251 83.875C238.251 102.692 222.942 118 204.126 118C185.31 118 170.001 102.692 170.001 83.875C170.001 65.0575 185.31 49.75 204.126 49.75ZM165.831 70.3306C164.328 74.5703 163.501 79.1268 163.501 83.875H153.751V77.375C153.751 66.0244 148.158 55.977 139.607 49.7711C152.006 49.984 162.684 58.3511 165.831 70.3306ZM129.376 51.5602C139.804 55.5139 147.251 65.5775 147.251 77.375V83.875H111.501V77.375C111.501 65.5775 118.948 55.5139 129.376 51.5602ZM92.0009 77.375C92.0009 62.3064 104.133 50.0376 119.14 49.7744C110.591 55.9819 105.001 66.026 105.001 77.375V83.875H92.0009V77.375ZM53.6184 226.875C52.6954 226.875 51.8423 226.5 51.2183 225.817C50.5943 225.135 50.2985 224.252 50.3814 223.331L62.4682 90.375H85.5009V98.5C85.5009 100.294 86.9569 101.75 88.7509 101.75C90.5449 101.75 92.0009 100.294 92.0009 98.5V90.375H105.001V98.5C105.001 100.294 106.457 101.75 108.251 101.75C110.045 101.75 111.501 100.294 111.501 98.5V90.375H147.251V98.5C147.251 100.294 148.707 101.75 150.501 101.75C152.295 101.75 153.751 100.294 153.751 98.5V90.375H164.027C165.428 99.0492 169.583 106.812 175.565 112.733L177.817 137.5H118.001C116.327 137.5 114.926 138.771 114.767 140.436L106.402 226.875H53.6184ZM189.329 238.25H115.411C114.483 238.25 113.626 237.871 113.004 237.186C112.38 236.498 112.088 235.611 112.175 234.688L120.95 144H187.876H199.552L208.327 234.688C208.416 235.611 208.122 236.498 207.498 237.186C206.874 237.871 206.019 238.25 205.091 238.25H189.329ZM226.202 234.688C226.291 235.611 225.997 236.498 225.373 237.186C224.749 237.871 223.894 238.25 222.966 238.25H214.272C214.744 236.919 214.934 235.491 214.794 234.061L206.079 144H217.425L226.202 234.688Z" fill="#BA4B40"/>
<path d="M214.509 69.4933L189.768 94.2342C188.791 95.2105 188.791 96.7934 189.768 97.7697C190.744 98.746 192.327 98.746 193.303 97.7697L218.044 73.0288C219.021 72.0525 219.021 70.4696 218.044 69.4933C217.068 68.517 215.485 68.5169 214.509 69.4933Z" fill="#BA4B40"/>
<path d="M218.044 94.9752L193.303 70.2342C192.327 69.2579 190.744 69.2579 189.768 70.2342C188.791 71.2106 188.791 72.7935 189.768 73.7698L214.509 98.5107C215.485 99.487 217.068 99.487 218.044 98.5107C219.021 97.5344 219.021 95.9515 218.044 94.9752Z" fill="#BA4B40"/>
</svg>
