<svg width="24" height="24" viewBox="0 0 24 24" fill="none" xmlns="http://www.w3.org/2000/svg">
<path d="M12 22C6.478 22 2 17.522 2 12C2 6.478 6.478 2 12 2C17.522 2 22 6.478 22 12C22 17.522 17.522 22 12 22Z" fill="#25D366"/>
<path fill-rule="evenodd" clip-rule="evenodd" d="M16.6781 7.34402C15.4381 6.10202 13.7861 5.41802 12.0281 5.41602C8.4061 5.41602 5.4561 8.36402 5.4561 11.988C5.4561 13.146 5.7581 14.278 6.3341 15.274L5.4021 18.68L8.8861 17.766C9.8461 18.29 10.9261 18.566 12.0261 18.566H12.0281C15.6501 18.566 18.5981 15.618 18.6001 11.994C18.6021 10.238 17.9201 8.58602 16.6781 7.34402ZM12.0301 17.456H12.0281C11.0481 17.456 10.0861 17.192 9.2481 16.694L9.0481 16.576L6.9801 17.118L7.5321 15.102L7.4021 14.896C6.8561 14.026 6.5661 13.022 6.5661 11.988C6.5681 8.97601 9.0181 6.52602 12.0321 6.52602C13.4921 6.52602 14.8621 7.09602 15.8941 8.12802C16.9261 9.16002 17.4941 10.534 17.4921 11.992C17.4921 15.006 15.0401 17.456 12.0301 17.456ZM15.0261 13.364C14.8621 13.282 14.0541 12.884 13.9041 12.83C13.7541 12.776 13.6441 12.748 13.5341 12.912C13.4241 13.076 13.1101 13.446 13.0141 13.556C12.9181 13.666 12.8221 13.68 12.6581 13.598C12.4941 13.516 11.9641 13.342 11.3381 12.782C10.8501 12.346 10.5201 11.808 10.4241 11.644C10.3281 11.48 10.4141 11.39 10.4961 11.308C10.5701 11.234 10.6601 11.116 10.7421 11.02C10.8241 10.924 10.8521 10.856 10.9061 10.746C10.9601 10.636 10.9341 10.54 10.8921 10.458C10.8501 10.376 10.5221 9.56802 10.3861 9.23802C10.2521 8.91802 10.1181 8.96202 10.0161 8.95602C9.9201 8.95202 9.8101 8.95002 9.7021 8.95002C9.5921 8.95002 9.4141 8.99202 9.2641 9.15602C9.1141 9.32002 8.6901 9.71802 8.6901 10.526C8.6901 11.334 9.2781 12.116 9.3601 12.224C9.4421 12.334 10.5181 13.992 12.1661 14.704C12.5581 14.874 12.8641 14.974 13.1021 15.05C13.4961 15.176 13.8541 15.158 14.1361 15.116C14.4521 15.068 15.1081 14.718 15.2441 14.336C15.3801 13.952 15.3801 13.624 15.3401 13.556C15.3001 13.488 15.1901 13.448 15.0261 13.364Z" fill="white"/>
</svg>
