<svg width="32" height="32" viewBox="0 0 32 32" fill="none" xmlns="http://www.w3.org/2000/svg">
<g clipPath="url(#clip0_1_1449)">
<path d="M9.97236 11.6903C10.2046 10.9536 10.8368 10.0714 11.2946 9.84586C11.4979 9.74586 11.649 9.72363 12.1424 9.72363C12.7224 9.72363 12.7512 9.72919 12.9024 9.87919C13.0001 9.98474 13.2668 10.5525 13.6501 11.4703C13.9746 12.2592 14.2424 12.9314 14.2424 12.967C14.2424 13.1292 13.9168 13.6447 13.5457 14.0803C13.2901 14.377 13.1401 14.6025 13.1401 14.6836C13.1401 14.7592 13.3257 15.107 13.5579 15.4503C14.1201 16.2914 15.1579 17.3347 15.9657 17.8692C16.5968 18.287 17.7235 18.8325 17.949 18.8325C18.1179 18.8325 18.4257 18.5303 19.0512 17.7414C19.3068 17.4225 19.5335 17.1914 19.6201 17.1736C19.6957 17.1503 19.8812 17.1792 20.0312 17.237C20.4668 17.4059 22.6657 18.4781 22.7824 18.5825C23.0079 18.7914 22.8235 19.987 22.4857 20.4736C21.9701 21.2292 20.4968 21.8725 19.5268 21.7736C18.8201 21.6981 17.149 21.147 16.0635 20.6303C14.6712 19.9636 13.2035 18.7447 12.0146 17.2547C11.3357 16.407 10.6512 15.3747 10.3557 14.7592C9.95569 13.9247 9.81013 13.2803 9.85013 12.537C9.86791 12.2181 9.92569 11.8359 9.97236 11.6903Z" fill="#25D366"/>
<path fillRule="evenodd" clipRule="evenodd" d="M3.33757 13.2224C4.42202 7.65686 8.8598 3.5113 14.5631 2.73352C15.3465 2.62241 17.5454 2.65797 18.3054 2.78464C19.0998 2.92464 20.1498 3.19686 20.7942 3.44019C25.052 5.02464 28.1976 8.68464 29.0898 13.088C29.4787 15.0091 29.392 17.2602 28.8642 19.1513C27.6054 23.6291 23.9498 27.1569 19.4076 28.2824C16.4487 29.0135 13.3387 28.6935 10.5376 27.3824L9.85202 27.058L6.26757 28.2013C4.30091 28.828 2.67535 29.3269 2.66424 29.3146C2.65313 29.3035 3.16424 27.7424 3.80757 25.8569L4.97424 22.4169L4.50313 21.4835C3.19757 18.8546 2.79757 16.0113 3.33646 13.2202L3.33757 13.2224ZM26.862 12.7691C25.7198 8.5913 22.0876 5.40686 17.812 4.82686C15.4798 4.51352 13.2809 4.86797 11.2565 5.88908C6.34869 8.3713 4.0098 14.0457 5.77868 19.1746C6.00535 19.8302 6.61424 21.0657 6.99202 21.6335L7.29313 22.0869L6.62091 24.0591C6.38722 24.7289 6.16276 25.402 5.94757 26.078C5.94757 26.1069 6.88091 25.8291 8.01868 25.4691C8.72017 25.2413 9.42391 25.0206 10.1298 24.8069C10.1542 24.8069 10.3798 24.9291 10.6298 25.0735C13.3276 26.6813 16.692 27.0291 19.7265 26.0202C21.4759 25.4382 23.0515 24.4269 24.3093 23.0789C25.5671 21.7309 26.4669 20.089 26.9265 18.3035C27.3721 16.4832 27.3499 14.5797 26.862 12.7702V12.7691Z" fill="#25D366"/>
</g>
<defs>
<clipPath id="clip0_1_1449">
<rect width="26.6667" height="26.6667" fill="white" transform="translate(2.66406 2.66699)"/>
</clipPath>
</defs>
</svg>
